<?xml version="1.0"?>
<svg xmlns="http://www.w3.org/2000/svg" id="_x31__x2C_5" enable-background="new 0 0 24 24" height="512px" viewBox="0 0 24 24" width="512px"><g><g id="XMLID_1_"><path d="m24 17.5c0 .66-.1 1.29-.28 1.89.01-.05.01-.09.01-.14 0-.41-.34-.75-.75-.75h-.58c.07-.32.1-.66.1-1s-.03-.68-.1-1h.58c.42 0 .75-.34.75-.75 0-.1-.02-.2-.06-.29.21.64.33 1.33.33 2.04z" data-original="#000000" class="active-path" data-old_color="#000000" fill="#FFFFFF"/><path d="m23.67 15.46c.04.09.06.19.06.29 0 .41-.33.75-.75.75h-.58c-.11-.54-.3-1.04-.57-1.5h1.15c.31 0 .58.19.69.46z" data-original="#000000" class="active-path" data-old_color="#000000" fill="#FFFFFF"/><path d="m22.98 18.5c.41 0 .75.34.75.75 0 .05 0 .09-.01.14s-.03.1-.05.15c-.11.27-.37.46-.69.46h-1.15c.27-.46.46-.96.57-1.5z" data-original="#000000" class="active-path" data-old_color="#000000" fill="#FFFFFF"/><path d="m21.83 15c-.44-.76-1.07-1.39-1.83-1.83v-1.15c0-.32-.19-.58-.46-.69 1.94.64 3.49 2.19 4.13 4.13-.11-.27-.38-.46-.69-.46z" data-original="#000000" class="active-path" data-old_color="#000000" fill="#FFFFFF"/><path d="m21.83 15c.27.46.46.96.57 1.5h-2.4v-1.5z" data-original="#000000" class="active-path" data-old_color="#000000" fill="#FFFFFF"/><path d="m20 18.5h2.4c-.11.54-.3 1.04-.57 1.5h-1.83z" data-original="#000000" class="active-path" data-old_color="#000000" fill="#FFFFFF"/><path d="m22.98 20c.32 0 .58-.19.69-.46-.64 1.94-2.19 3.49-4.13 4.13.27-.11.46-.37.46-.69v-1.15c.76-.44 1.39-1.07 1.83-1.83z" data-original="#000000" class="active-path" data-old_color="#000000" fill="#FFFFFF"/><path d="m20 21.83v1.15c0 .32-.19.58-.46.69-.05.02-.1.04-.15.05s-.09.01-.14.01c-.41 0-.75-.34-.75-.75v-.58c.54-.11 1.04-.3 1.5-.57z" data-original="#000000" class="active-path" data-old_color="#000000" fill="#FFFFFF"/><path d="m20 20v1.83c-.46.27-.96.46-1.5.57v-2.4z" data-original="#000000" class="active-path" data-old_color="#000000" fill="#FFFFFF"/><path d="m18.5 18.5h1.5v1.5h-1.5z" data-original="#000000" class="active-path" data-old_color="#000000" fill="#FFFFFF"/><path d="m18.5 16.5h1.5v2h-1.5z" data-original="#000000" class="active-path" data-old_color="#000000" fill="#FFFFFF"/><path d="m18.5 15h1.5v1.5h-1.5z" data-original="#000000" class="active-path" data-old_color="#000000" fill="#FFFFFF"/><path d="m20 13.17v1.83h-1.5v-2.4c.54.11 1.04.3 1.5.57z" data-original="#000000" class="active-path" data-old_color="#000000" fill="#FFFFFF"/><path d="m20 12.02v1.15c-.46-.27-.96-.46-1.5-.57v-.58c0-.41.34-.75.75-.75.05 0 .09 0 .14.01s.1.03.15.05c.27.11.46.37.46.69z" data-original="#000000" class="active-path" data-old_color="#000000" fill="#FFFFFF"/><path d="m16.5 18.5h2v1.5h-2z" data-original="#000000" class="active-path" data-old_color="#000000" fill="#FFFFFF"/><path d="m16.5 15h2v1.5h-2z" data-original="#000000" class="active-path" data-old_color="#000000" fill="#FFFFFF"/><path d="m16.5 22.4v.58c0 .42-.34.75-.75.75-.1 0-.2-.02-.29-.06-.27-.11-.46-.38-.46-.69v-1.15c.46.27.96.46 1.5.57z" data-original="#000000" class="active-path" data-old_color="#000000" fill="#FFFFFF"/><path d="m16.5 20v2.4c-.54-.11-1.04-.3-1.5-.57v-1.83z" data-original="#000000" class="active-path" data-old_color="#000000" fill="#FFFFFF"/><path d="m15 18.5h1.5v1.5h-1.5z" data-original="#000000" class="active-path" data-old_color="#000000" fill="#FFFFFF"/><path d="m15 16.5h1.5v2h-1.5z" data-original="#000000" class="active-path" data-old_color="#000000" fill="#FFFFFF"/><path d="m15 15h1.5v1.5h-1.5z" data-original="#000000" class="active-path" data-old_color="#000000" fill="#FFFFFF"/><path d="m16.5 12.6v2.4h-1.5v-1.83c.46-.27.96-.46 1.5-.57z" data-original="#000000" class="active-path" data-old_color="#000000" fill="#FFFFFF"/><path d="m16.5 12.02v.58c-.54.11-1.04.3-1.5.57v-1.15c0-.31.19-.58.46-.69.09-.04.19-.06.29-.06.41 0 .75.34.75.75z" data-original="#000000" class="active-path" data-old_color="#000000" fill="#FFFFFF"/><path d="m16.5 12.02c0-.41-.34-.75-.75-.75-.1 0-.2.02-.29.06.64-.21 1.33-.33 2.04-.33.66 0 1.29.1 1.89.28-.05-.01-.09-.01-.14-.01-.41 0-.75.34-.75.75v.58c-.32-.07-.66-.1-1-.1s-.68.03-1 .1z" data-original="#000000" class="active-path" data-old_color="#000000" fill="#FFFFFF"/><path d="m15.75 23.73c.41 0 .75-.33.75-.75v-.58c.32.07.66.1 1 .1s.68-.03 1-.1v.58c0 .41.34.75.75.75.05 0 .09 0 .14-.01-.6.18-1.23.28-1.89.28-.71 0-1.4-.12-2.04-.33.09.04.19.06.29.06z" data-original="#000000" class="active-path" data-old_color="#000000" fill="#FFFFFF"/><path d="m15 18.5v1.5h-1.83c-.27-.46-.46-.96-.57-1.5z" data-original="#000000" class="active-path" data-old_color="#000000" fill="#FFFFFF"/><path d="m15 15v1.5h-2.4c.11-.54.3-1.04.57-1.5z" data-original="#000000" class="active-path" data-old_color="#000000" fill="#FFFFFF"/><path d="m15 13.17c-.76.44-1.39 1.07-1.83 1.83h-1.15c-.32 0-.58.19-.69.46.64-1.94 2.19-3.49 4.13-4.13-.27.11-.46.38-.46.69z" data-original="#000000" class="active-path" data-old_color="#000000" fill="#FFFFFF"/><circle cx="13" cy="5" r="1" data-original="#000000" class="active-path" data-old_color="#000000" fill="#FFFFFF"/><path d="m12.02 15h1.15c-.27.46-.46.96-.57 1.5h-.58c-.41 0-.75-.34-.75-.75 0-.05 0-.09.01-.14s.03-.1.05-.15c.11-.27.37-.46.69-.46z" data-original="#000000" class="active-path" data-old_color="#000000" fill="#FFFFFF"/><path d="m12.02 18.5h.58c.11.54.3 1.04.57 1.5h-1.15c-.31 0-.58-.19-.69-.46-.04-.09-.06-.19-.06-.29 0-.41.34-.75.75-.75z" data-original="#000000" class="active-path" data-old_color="#000000" fill="#FFFFFF"/><path d="m13.17 20c.44.76 1.07 1.39 1.83 1.83v1.15c0 .31.19.58.46.69-1.94-.64-3.49-2.19-4.13-4.13.11.27.38.46.69.46z" data-original="#000000" class="active-path" data-old_color="#000000" fill="#FFFFFF"/><path d="m11.33 19.54c-.21-.64-.33-1.33-.33-2.04 0-.66.1-1.29.28-1.89-.01.05-.01.09-.01.14 0 .41.34.75.75.75h.58c-.07.32-.1.66-.1 1s.03.68.1 1h-.58c-.41 0-.75.34-.75.75 0 .1.02.2.06.29z" data-original="#000000" class="active-path" data-old_color="#000000" fill="#FFFFFF"/><circle cx="9" cy="5" r="1" data-original="#000000" class="active-path" data-old_color="#000000" fill="#FFFFFF"/><path d="m8.42 15c.41 0 .75.34.75.75s-.34.75-.75.75h-6.92v-1.5z" data-original="#000000" class="active-path" data-old_color="#000000" fill="#FFFFFF"/><circle cx="5" cy="5" r="1" data-original="#000000" class="active-path" data-old_color="#000000" fill="#FFFFFF"/><path d="m1.5 15v1.5h-.25c-.41 0-.75-.34-.75-.75s.34-.75.75-.75z" data-original="#000000" class="active-path" data-old_color="#000000" fill="#FFFFFF"/><path d="m2.75 1.5c-.69 0-1.25.56-1.25 1.25v4.75h15v-4.75c0-.69-.56-1.25-1.25-1.25zm7.51 21c.41 0 .75.34.75.75s-.34.75-.75.75h-7.51c-1.52 0-2.75-1.23-2.75-2.75v-18.5c0-1.52 1.23-2.75 2.75-2.75h12.5c1.52 0 2.75 1.23 2.75 2.75v5.5c0 .41-.34.75-.75.75h-15.75v6h-.25c-.41 0-.75.34-.75.75s.34.75.75.75h.25v4.75c0 .69.56 1.25 1.25 1.25z" data-original="#000000" class="active-path" data-old_color="#000000" fill="#FFFFFF"/></g></g> </svg>
